Coordinates
version=1
nRows=12
nColumns=33
inDegrees=yes

Units are S.I. units (second, meters, Newtons, ...)
Angles are in degrees.

endheader
time	ground_thorax_rot_x	ground_thorax_rot_y	ground_thorax_rot_z	ground_thorax_tx	ground_thorax_ty	ground_thorax_tz	clav_prot_r	clav_elev_r	scapula_abduction_r	scapula_elevation_r	scapula_upward_rot_r	scapula_winging_r	shoulder_elv_r	plane_of_elev_r	axial_rot_r	elbow_flexion_r	pro_sup_r	wrist_flex_r	wrist_dev_r	clav_prot_l	clav_elev_l	scapula_abduction_l	scapula_elevation_l	scapula_upward_rot_l	scapula_winging_l	shoulder_elv_l	plane_of_elev_l	axial_rot_l	elbow_flexion_l	pro_sup_l	wrist_flex_l	wrist_dev_l
      2.25000000	    -29.12456875	    -21.11337506	     35.17417132	    -54.29946098	    825.37601069	    -44.40083249	     27.16794538	    -45.00000000	     39.28286164	    -45.00000000	    -45.00000000	  -4065.27309365	  -4063.91643317	    158.04141385	     28.53465942	   1079.68095952	   -201.45746817	     11.30118349	     13.65168550	     -0.57051539	     32.40376590	    -31.56316852	    -45.00000000	    -45.00000000	  -2793.52471806	  -3687.78941224	    132.88027281	   -102.76593376	    709.58202519	     40.56342608	     14.03868117	    -17.78431443
      2.26000000	    -29.41862795	    -20.96816102	     34.67328877	    -55.70964740	    827.10738837	    -44.35656797	     27.16332075	    -45.00000000	     39.15841352	    -45.00000000	    -45.00000000	  -4065.27176595	  -4064.11722336	    157.74453932	     28.09386314	   1079.76777050	   -201.70433033	     11.30656267	     13.62513772	     -0.55118906	     32.42775933	    -31.88667924	    -45.00000000	    -45.00000000	  -2793.01960044	  -3687.71519941	    132.62419113	   -102.51358021	    709.54172890	     40.29460770	     14.19556622	    -18.07224715
      2.27000000	    -29.36130238	    -20.93119148	     34.55615533	    -57.02268351	    828.84554888	    -44.31390110	     26.99852002	    -45.00000000	     39.29814396	    -45.00000000	    -45.00000000	  -4065.39006709	  -4063.94712221	    157.77817098	     27.60275055	   1079.53823691	   -201.93360761	     11.34363484	     13.66916583	     -0.52135442	     32.49551607	    -31.83517949	    -45.00000000	    -45.00000000	  -2793.22517565	  -3687.63490653	    132.75236239	   -102.30520462	    709.62597841	     39.99957726	     14.16471952	    -18.10088174
      2.28000000	    -29.37816350	    -20.88411194	     34.41833950	    -58.24111745	    830.58972343	    -44.27311528	     27.02697304	    -45.00000000	     39.24400532	    -45.00000000	    -45.00000000	  -4065.36879575	  -4063.84400332	    157.70988472	     27.05502397	   1079.53116829	   -202.20999209	     11.37946378	     13.61760476	     -0.53981539	     32.54928704	    -31.87097562	    -45.00000000	    -45.00000000	  -2793.18920701	  -3687.53709910	    132.71726812	   -102.18361346	    709.63686795	     39.66837470	     14.16594652	    -18.17272669
      2.29000000	    -29.46660341	    -20.78642728	     34.18061761	    -59.37098265	    832.33942448	    -44.23449385	     26.96942093	    -45.00000000	     39.20580121	    -45.00000000	    -45.00000000	  -4065.45821497	  -4063.80645191	    157.59059938	     26.53321899	   1079.45053147	   -202.47169043	     11.43179708	     13.60944828	     -0.51197000	     32.59266261	    -31.98586219	    -45.00000000	    -45.00000000	  -2793.06548198	  -3687.46709671	    132.62252508	   -101.95774738	    709.62345589	     39.33463044	     14.24835747	    -18.30820663
      2.30000000	    -29.56265934	    -20.68635118	     33.92456296	    -60.41968794	    834.09145345	    -44.19858762	     26.78223056	    -45.00000000	     39.16952139	    -45.00000000	    -45.00000000	  -4065.42529790	  -4063.76221562	    157.53871469	     26.01096214	   1079.36009862	   -202.73110819	     11.47477805	     13.61262017	     -0.43925382	     32.62851158	    -32.10891138	    -45.00000000	    -45.00000000	  -2793.01826249	  -3687.39091939	    132.60489164	   -101.72431745	    709.65359761	     38.98739669	     14.28702826	    -18.40073780
      2.31000000	    -29.62805914	    -20.62906192	     33.73131316	    -61.39871625	    835.84276814	    -44.16586423	     26.69477528	    -45.00000000	     39.18732212	    -45.00000000	    -45.00000000	  -4065.44031043	  -4063.72884499	    157.45274664	     25.48260495	   1079.27879639	   -202.98902287	     11.53269509	     13.61212124	     -0.40474392	     32.68469598	    -32.19253216	    -45.00000000	    -45.00000000	  -2792.97230285	  -3687.29550075	    132.56486897	   -101.46536965	    709.67511941	     38.64237847	     14.32784772	    -18.49637193
      2.32000000	    -29.75531617	    -20.58070542	     33.48093187	    -62.31785079	    837.58483783	    -44.13682459	     26.72973454	    -45.00000000	     39.16057112	    -45.00000000	    -45.00000000	  -4065.49889826	  -4063.76420085	    157.28958496	     24.96670116	   1079.22856346	   -203.23554281	     11.59892661	     13.63121402	     -0.42098455	     32.71120945	    -32.31299387	    -45.00000000	    -45.00000000	  -2792.77622568	  -3687.21701652	    132.45883184	   -101.19257409	    709.67067554	     38.32036567	     14.42375681	    -18.65692256
      2.33000000	    -29.84827577	    -20.49323743	     33.24291574	    -63.19127607	    839.31721781	    -44.11168604	     26.57291443	    -45.00000000	     39.13152467	    -45.00000000	    -45.00000000	  -4065.48570333	  -4063.73878673	    157.22899914	     24.51578874	   1079.17525136	   -203.46330330	     11.66920738	     13.64013042	     -0.35996715	     32.73635985	    -32.45561465	    -45.00000000	    -45.00000000	  -2792.71776121	  -3687.14812998	    132.40217969	   -100.90105412	    709.69617529	     38.01691727	     14.48358572	    -18.77270721
      2.34000000	    -29.86432201	    -20.46708388	     33.10335375	    -64.02661710	    841.03189750	    -44.09026298	     26.47254042	    -45.00000000	     39.20466979	    -45.00000000	    -45.00000000	  -4065.52496194	  -4063.67471849	    157.18859625	     24.02047548	   1079.05970442	   -203.69280165	     11.76031831	     13.64549545	     -0.33876004	     32.77298610	    -32.46227124	    -45.00000000	    -45.00000000	  -2792.73786496	  -3687.05777019	    132.41337615	   -100.65221626	    709.71018225	     37.73315649	     14.50004973	    -18.83801944
      2.35000000	    -29.90331633	    -20.43873750	     32.95289547	    -64.83136181	    842.72537127	    -44.07204251	     26.52630600	    -45.00000000	     39.26477094	    -45.00000000	    -45.00000000	  -4065.60345251	  -4063.65663917	    157.10801460	     23.58067481	   1078.98124724	   -203.90363505	     11.86642409	     13.66660281	     -0.37019298	     32.81405527	    -32.51984070	    -45.00000000	    -45.00000000	  -2792.67498641	  -3686.97260747	    132.33635393	   -100.41590627	    709.72832460	     37.49502688	     14.54525707	    -18.96650516
      2.36000000	    -30.04933668	    -20.40919560	     32.71058632	    -65.60924880	    844.39356774	    -44.05592189	     26.50993799	    -45.00000000	     39.20835237	    -45.00000000	    -45.00000000	  -4065.64500307	  -4063.71108704	    156.96641010	     23.17005888	   1078.95079086	   -204.09854056	     11.99490901	     13.68140534	     -0.35257029	     32.84202837	    -32.65900926	    -45.00000000	    -45.00000000	  -2792.47913480	  -3686.91429055	    132.22446678	   -100.14305518	    709.74375539	     37.32137460	     14.62430658	    -19.16081857
